<mxfile host="app.diagrams.net" modified="2024-04-02T03:25:51.171Z" agent="Mozilla/5.0 (Windows NT 10.0; Win64; x64) AppleWebKit/537.36 (KHTML, like Gecko) Chrome/123.0.0.0 Safari/537.36" etag="D81Jf36ocJlnLO5ljHz4" version="24.0.7" type="device" pages="2">
  <diagram id="R2lEEEUBdFMjLlhIrx00" name="Page-1">
    <mxGraphModel dx="1969" dy="1978" grid="1" gridSize="10" guides="1" tooltips="1" connect="1" arrows="1" fold="1" page="1" pageScale="1" pageWidth="850" pageHeight="1100" math="0" shadow="0" extFonts="Permanent Marker^https://fonts.googleapis.com/css?family=Permanent+Marker">
      <root>
        <mxCell id="0" />
        <mxCell id="1" parent="0" />
        <mxCell id="c13vCLqnfg1jj1d8WCXx-79" value="La Liga" style="rounded=1;whiteSpace=wrap;html=1;" vertex="1" parent="1">
          <mxGeometry x="35" y="-450" width="120" height="60" as="geometry" />
        </mxCell>
        <mxCell id="c13vCLqnfg1jj1d8WCXx-126" value="Seasons" style="rounded=1;whiteSpace=wrap;html=1;" vertex="1" parent="1">
          <mxGeometry x="232.5" y="-250" width="120" height="60" as="geometry" />
        </mxCell>
        <mxCell id="c13vCLqnfg1jj1d8WCXx-127" value="2020/2021" style="ellipse;whiteSpace=wrap;html=1;" vertex="1" parent="1">
          <mxGeometry x="480" y="-160" width="90" height="50" as="geometry" />
        </mxCell>
        <mxCell id="c13vCLqnfg1jj1d8WCXx-128" value="Player Name" style="rounded=1;whiteSpace=wrap;html=1;" vertex="1" parent="1">
          <mxGeometry x="232.5" y="50" width="120" height="60" as="geometry" />
        </mxCell>
        <mxCell id="c13vCLqnfg1jj1d8WCXx-129" value="xG scores" style="ellipse;whiteSpace=wrap;html=1;" vertex="1" parent="1">
          <mxGeometry x="57.5" y="205" width="80" height="50" as="geometry" />
        </mxCell>
        <mxCell id="c13vCLqnfg1jj1d8WCXx-130" value="Most Shots" style="ellipse;whiteSpace=wrap;html=1;" vertex="1" parent="1">
          <mxGeometry x="162.5" y="205" width="80" height="50" as="geometry" />
        </mxCell>
        <mxCell id="c13vCLqnfg1jj1d8WCXx-131" value="2018/2019" style="ellipse;whiteSpace=wrap;html=1;" vertex="1" parent="1">
          <mxGeometry x="30" y="-160" width="90" height="50" as="geometry" />
        </mxCell>
        <mxCell id="c13vCLqnfg1jj1d8WCXx-132" value="2019/2020" style="ellipse;whiteSpace=wrap;html=1;" vertex="1" parent="1">
          <mxGeometry x="247.5" y="-160" width="90" height="50" as="geometry" />
        </mxCell>
        <mxCell id="c13vCLqnfg1jj1d8WCXx-133" value="first time shots" style="ellipse;whiteSpace=wrap;html=1;" vertex="1" parent="1">
          <mxGeometry x="407.5" y="205" width="95" height="50" as="geometry" />
        </mxCell>
        <mxCell id="c13vCLqnfg1jj1d8WCXx-136" value="Team Names" style="rounded=1;whiteSpace=wrap;html=1;" vertex="1" parent="1">
          <mxGeometry x="235" y="-90" width="120" height="60" as="geometry" />
        </mxCell>
        <mxCell id="c13vCLqnfg1jj1d8WCXx-137" value="team passes" style="ellipse;whiteSpace=wrap;html=1;" vertex="1" parent="1">
          <mxGeometry x="250" y="-20" width="90" height="50" as="geometry" />
        </mxCell>
        <mxCell id="c13vCLqnfg1jj1d8WCXx-140" value="Premier League" style="rounded=1;whiteSpace=wrap;html=1;" vertex="1" parent="1">
          <mxGeometry x="791.25" y="-430" width="120" height="60" as="geometry" />
        </mxCell>
        <mxCell id="c13vCLqnfg1jj1d8WCXx-141" value="Seasons" style="rounded=1;whiteSpace=wrap;html=1;" vertex="1" parent="1">
          <mxGeometry x="782.5" y="-280" width="120" height="60" as="geometry" />
        </mxCell>
        <mxCell id="c13vCLqnfg1jj1d8WCXx-143" value="Player Name" style="rounded=1;whiteSpace=wrap;html=1;" vertex="1" parent="1">
          <mxGeometry x="770" y="70" width="120" height="60" as="geometry" />
        </mxCell>
        <mxCell id="c13vCLqnfg1jj1d8WCXx-144" value="xG scores" style="ellipse;whiteSpace=wrap;html=1;" vertex="1" parent="1">
          <mxGeometry x="656.25" y="210" width="80" height="50" as="geometry" />
        </mxCell>
        <mxCell id="c13vCLqnfg1jj1d8WCXx-145" value="Shots" style="ellipse;whiteSpace=wrap;html=1;" vertex="1" parent="1">
          <mxGeometry x="791.25" y="215" width="80" height="50" as="geometry" />
        </mxCell>
        <mxCell id="c13vCLqnfg1jj1d8WCXx-146" value="2003/2004" style="ellipse;whiteSpace=wrap;html=1;" vertex="1" parent="1">
          <mxGeometry x="632.5" y="-165" width="90" height="50" as="geometry" />
        </mxCell>
        <mxCell id="c13vCLqnfg1jj1d8WCXx-148" value="first time shots" style="ellipse;whiteSpace=wrap;html=1;" vertex="1" parent="1">
          <mxGeometry x="911.25" y="210" width="95" height="50" as="geometry" />
        </mxCell>
        <mxCell id="c13vCLqnfg1jj1d8WCXx-149" value="Team Names" style="rounded=1;whiteSpace=wrap;html=1;" vertex="1" parent="1">
          <mxGeometry x="791.25" y="-90" width="120" height="60" as="geometry" />
        </mxCell>
        <mxCell id="c13vCLqnfg1jj1d8WCXx-150" value="shots made" style="ellipse;whiteSpace=wrap;html=1;" vertex="1" parent="1">
          <mxGeometry x="775" y="-10" width="90" height="50" as="geometry" />
        </mxCell>
        <mxCell id="c13vCLqnfg1jj1d8WCXx-162" value="intended recipients of passes" style="ellipse;whiteSpace=wrap;html=1;" vertex="1" parent="1">
          <mxGeometry x="560" y="70" width="100" height="50" as="geometry" />
        </mxCell>
        <mxCell id="c13vCLqnfg1jj1d8WCXx-163" value="through balls" style="ellipse;whiteSpace=wrap;html=1;" vertex="1" parent="1">
          <mxGeometry x="445" y="70" width="95" height="50" as="geometry" />
        </mxCell>
        <mxCell id="c13vCLqnfg1jj1d8WCXx-164" value="Completed dribbles" style="ellipse;whiteSpace=wrap;html=1;" vertex="1" parent="1">
          <mxGeometry x="45" y="40" width="95" height="50" as="geometry" />
        </mxCell>
        <mxCell id="c13vCLqnfg1jj1d8WCXx-165" value="least dribbled" style="ellipse;whiteSpace=wrap;html=1;" vertex="1" parent="1">
          <mxGeometry x="280" y="205" width="95" height="50" as="geometry" />
        </mxCell>
        <mxCell id="c13vCLqnfg1jj1d8WCXx-167" value="" style="endArrow=none;html=1;rounded=0;entryX=0.5;entryY=1;entryDx=0;entryDy=0;exitX=0.5;exitY=0;exitDx=0;exitDy=0;" edge="1" parent="1" source="c13vCLqnfg1jj1d8WCXx-126" target="c13vCLqnfg1jj1d8WCXx-79">
          <mxGeometry width="50" height="50" relative="1" as="geometry">
            <mxPoint x="290" y="-190" as="sourcePoint" />
            <mxPoint x="340" y="-240" as="targetPoint" />
          </mxGeometry>
        </mxCell>
        <mxCell id="c13vCLqnfg1jj1d8WCXx-168" value="" style="endArrow=none;html=1;rounded=0;entryX=0.5;entryY=0;entryDx=0;entryDy=0;" edge="1" parent="1" target="c13vCLqnfg1jj1d8WCXx-132">
          <mxGeometry width="50" height="50" relative="1" as="geometry">
            <mxPoint x="293" y="-190" as="sourcePoint" />
            <mxPoint x="340" y="-240" as="targetPoint" />
          </mxGeometry>
        </mxCell>
        <mxCell id="c13vCLqnfg1jj1d8WCXx-170" value="" style="endArrow=none;html=1;rounded=0;entryX=0;entryY=0.5;entryDx=0;entryDy=0;exitX=0.5;exitY=0;exitDx=0;exitDy=0;" edge="1" parent="1" source="c13vCLqnfg1jj1d8WCXx-131" target="c13vCLqnfg1jj1d8WCXx-126">
          <mxGeometry width="50" height="50" relative="1" as="geometry">
            <mxPoint x="290" y="-190" as="sourcePoint" />
            <mxPoint x="340" y="-240" as="targetPoint" />
          </mxGeometry>
        </mxCell>
        <mxCell id="c13vCLqnfg1jj1d8WCXx-171" value="" style="endArrow=none;html=1;rounded=0;entryX=1;entryY=0.5;entryDx=0;entryDy=0;exitX=0.5;exitY=0;exitDx=0;exitDy=0;" edge="1" parent="1" source="c13vCLqnfg1jj1d8WCXx-127" target="c13vCLqnfg1jj1d8WCXx-126">
          <mxGeometry width="50" height="50" relative="1" as="geometry">
            <mxPoint x="165" y="-150" as="sourcePoint" />
            <mxPoint x="243" y="-210" as="targetPoint" />
          </mxGeometry>
        </mxCell>
        <mxCell id="c13vCLqnfg1jj1d8WCXx-174" value="" style="endArrow=none;html=1;rounded=0;entryX=0.5;entryY=1;entryDx=0;entryDy=0;" edge="1" parent="1" source="c13vCLqnfg1jj1d8WCXx-137" target="c13vCLqnfg1jj1d8WCXx-136">
          <mxGeometry width="50" height="50" relative="1" as="geometry">
            <mxPoint x="290" y="-90" as="sourcePoint" />
            <mxPoint x="340" y="-140" as="targetPoint" />
          </mxGeometry>
        </mxCell>
        <mxCell id="c13vCLqnfg1jj1d8WCXx-175" value="" style="endArrow=none;html=1;rounded=0;entryX=1;entryY=0.5;entryDx=0;entryDy=0;exitX=0.5;exitY=1;exitDx=0;exitDy=0;" edge="1" parent="1" source="c13vCLqnfg1jj1d8WCXx-127" target="c13vCLqnfg1jj1d8WCXx-128">
          <mxGeometry width="50" height="50" relative="1" as="geometry">
            <mxPoint x="445" y="-150" as="sourcePoint" />
            <mxPoint x="363" y="-210" as="targetPoint" />
          </mxGeometry>
        </mxCell>
        <mxCell id="c13vCLqnfg1jj1d8WCXx-176" value="" style="endArrow=none;html=1;rounded=0;entryX=0;entryY=0.5;entryDx=0;entryDy=0;exitX=0.5;exitY=0;exitDx=0;exitDy=0;" edge="1" parent="1" source="c13vCLqnfg1jj1d8WCXx-129" target="c13vCLqnfg1jj1d8WCXx-128">
          <mxGeometry width="50" height="50" relative="1" as="geometry">
            <mxPoint x="290" y="-90" as="sourcePoint" />
            <mxPoint x="340" y="-140" as="targetPoint" />
          </mxGeometry>
        </mxCell>
        <mxCell id="c13vCLqnfg1jj1d8WCXx-178" value="" style="endArrow=none;html=1;rounded=0;exitX=0.5;exitY=1;exitDx=0;exitDy=0;" edge="1" parent="1" source="c13vCLqnfg1jj1d8WCXx-128" target="c13vCLqnfg1jj1d8WCXx-130">
          <mxGeometry width="50" height="50" relative="1" as="geometry">
            <mxPoint x="303" y="-180" as="sourcePoint" />
            <mxPoint x="303" y="-150" as="targetPoint" />
          </mxGeometry>
        </mxCell>
        <mxCell id="c13vCLqnfg1jj1d8WCXx-179" value="" style="endArrow=none;html=1;rounded=0;entryX=1;entryY=1;entryDx=0;entryDy=0;exitX=0;exitY=0;exitDx=0;exitDy=0;" edge="1" parent="1" source="c13vCLqnfg1jj1d8WCXx-128" target="c13vCLqnfg1jj1d8WCXx-131">
          <mxGeometry width="50" height="50" relative="1" as="geometry">
            <mxPoint x="165" y="-150" as="sourcePoint" />
            <mxPoint x="243" y="-210" as="targetPoint" />
          </mxGeometry>
        </mxCell>
        <mxCell id="c13vCLqnfg1jj1d8WCXx-181" value="" style="endArrow=none;html=1;rounded=0;entryX=1;entryY=0.5;entryDx=0;entryDy=0;" edge="1" parent="1" target="c13vCLqnfg1jj1d8WCXx-132">
          <mxGeometry width="50" height="50" relative="1" as="geometry">
            <mxPoint x="420" y="-80" as="sourcePoint" />
            <mxPoint x="243" y="-210" as="targetPoint" />
          </mxGeometry>
        </mxCell>
        <mxCell id="c13vCLqnfg1jj1d8WCXx-182" value="" style="endArrow=none;html=1;rounded=0;exitX=0.954;exitY=0.033;exitDx=0;exitDy=0;exitPerimeter=0;" edge="1" parent="1" source="c13vCLqnfg1jj1d8WCXx-128">
          <mxGeometry width="50" height="50" relative="1" as="geometry">
            <mxPoint x="290" y="-90" as="sourcePoint" />
            <mxPoint x="420" y="-80" as="targetPoint" />
          </mxGeometry>
        </mxCell>
        <mxCell id="c13vCLqnfg1jj1d8WCXx-183" value="" style="endArrow=none;html=1;rounded=0;entryX=1;entryY=1;entryDx=0;entryDy=0;exitX=0.295;exitY=0.06;exitDx=0;exitDy=0;exitPerimeter=0;" edge="1" parent="1" source="c13vCLqnfg1jj1d8WCXx-133" target="c13vCLqnfg1jj1d8WCXx-128">
          <mxGeometry width="50" height="50" relative="1" as="geometry">
            <mxPoint x="290" y="-90" as="sourcePoint" />
            <mxPoint x="340" y="-140" as="targetPoint" />
          </mxGeometry>
        </mxCell>
        <mxCell id="c13vCLqnfg1jj1d8WCXx-184" value="" style="endArrow=none;html=1;rounded=0;entryX=0.5;entryY=1;entryDx=0;entryDy=0;exitX=0.5;exitY=0;exitDx=0;exitDy=0;" edge="1" parent="1" source="c13vCLqnfg1jj1d8WCXx-136" target="c13vCLqnfg1jj1d8WCXx-132">
          <mxGeometry width="50" height="50" relative="1" as="geometry">
            <mxPoint x="290" y="-90" as="sourcePoint" />
            <mxPoint x="340" y="-140" as="targetPoint" />
          </mxGeometry>
        </mxCell>
        <mxCell id="c13vCLqnfg1jj1d8WCXx-185" value="" style="endArrow=none;html=1;rounded=0;entryX=0;entryY=0.5;entryDx=0;entryDy=0;exitX=1;exitY=0.5;exitDx=0;exitDy=0;" edge="1" parent="1" source="c13vCLqnfg1jj1d8WCXx-136" target="c13vCLqnfg1jj1d8WCXx-127">
          <mxGeometry width="50" height="50" relative="1" as="geometry">
            <mxPoint x="290" y="-90" as="sourcePoint" />
            <mxPoint x="340" y="-140" as="targetPoint" />
          </mxGeometry>
        </mxCell>
        <mxCell id="c13vCLqnfg1jj1d8WCXx-186" value="" style="endArrow=none;html=1;rounded=0;entryX=0.5;entryY=1;entryDx=0;entryDy=0;exitX=0.5;exitY=0;exitDx=0;exitDy=0;" edge="1" parent="1" source="c13vCLqnfg1jj1d8WCXx-141" target="c13vCLqnfg1jj1d8WCXx-140">
          <mxGeometry width="50" height="50" relative="1" as="geometry">
            <mxPoint x="690" y="-90" as="sourcePoint" />
            <mxPoint x="740" y="-140" as="targetPoint" />
          </mxGeometry>
        </mxCell>
        <mxCell id="c13vCLqnfg1jj1d8WCXx-187" value="" style="endArrow=none;html=1;rounded=0;entryX=0;entryY=1;entryDx=0;entryDy=0;exitX=0.5;exitY=0;exitDx=0;exitDy=0;" edge="1" parent="1" source="c13vCLqnfg1jj1d8WCXx-146" target="c13vCLqnfg1jj1d8WCXx-141">
          <mxGeometry width="50" height="50" relative="1" as="geometry">
            <mxPoint x="690" y="-90" as="sourcePoint" />
            <mxPoint x="740" y="-140" as="targetPoint" />
          </mxGeometry>
        </mxCell>
        <mxCell id="c13vCLqnfg1jj1d8WCXx-188" value="" style="endArrow=none;html=1;rounded=0;entryX=0.5;entryY=1;entryDx=0;entryDy=0;exitX=0;exitY=0.25;exitDx=0;exitDy=0;" edge="1" parent="1" source="c13vCLqnfg1jj1d8WCXx-143" target="c13vCLqnfg1jj1d8WCXx-146">
          <mxGeometry width="50" height="50" relative="1" as="geometry">
            <mxPoint x="715" y="-180" as="sourcePoint" />
            <mxPoint x="793" y="-210" as="targetPoint" />
          </mxGeometry>
        </mxCell>
        <mxCell id="c13vCLqnfg1jj1d8WCXx-189" value="" style="endArrow=none;html=1;rounded=0;entryX=0;entryY=0.75;entryDx=0;entryDy=0;exitX=1;exitY=0.5;exitDx=0;exitDy=0;" edge="1" parent="1" source="c13vCLqnfg1jj1d8WCXx-162" target="c13vCLqnfg1jj1d8WCXx-143">
          <mxGeometry width="50" height="50" relative="1" as="geometry">
            <mxPoint x="680" y="95" as="sourcePoint" />
            <mxPoint x="740" y="-140" as="targetPoint" />
          </mxGeometry>
        </mxCell>
        <mxCell id="c13vCLqnfg1jj1d8WCXx-190" value="" style="endArrow=none;html=1;rounded=0;exitX=0;exitY=0.25;exitDx=0;exitDy=0;" edge="1" parent="1" source="c13vCLqnfg1jj1d8WCXx-149" target="c13vCLqnfg1jj1d8WCXx-146">
          <mxGeometry width="50" height="50" relative="1" as="geometry">
            <mxPoint x="690" y="-90" as="sourcePoint" />
            <mxPoint x="740" y="-140" as="targetPoint" />
          </mxGeometry>
        </mxCell>
        <mxCell id="c13vCLqnfg1jj1d8WCXx-191" value="" style="endArrow=none;html=1;rounded=0;entryX=0.25;entryY=1;entryDx=0;entryDy=0;exitX=0.5;exitY=0;exitDx=0;exitDy=0;" edge="1" parent="1" source="c13vCLqnfg1jj1d8WCXx-150" target="c13vCLqnfg1jj1d8WCXx-149">
          <mxGeometry width="50" height="50" relative="1" as="geometry">
            <mxPoint x="690" y="-90" as="sourcePoint" />
            <mxPoint x="740" y="-140" as="targetPoint" />
          </mxGeometry>
        </mxCell>
        <mxCell id="c13vCLqnfg1jj1d8WCXx-192" value="" style="endArrow=none;html=1;rounded=0;entryX=0.032;entryY=0.38;entryDx=0;entryDy=0;entryPerimeter=0;exitX=0.988;exitY=0.65;exitDx=0;exitDy=0;exitPerimeter=0;" edge="1" parent="1" source="c13vCLqnfg1jj1d8WCXx-128" target="c13vCLqnfg1jj1d8WCXx-163">
          <mxGeometry width="50" height="50" relative="1" as="geometry">
            <mxPoint x="350" y="-90" as="sourcePoint" />
            <mxPoint x="400" y="-140" as="targetPoint" />
          </mxGeometry>
        </mxCell>
        <mxCell id="c13vCLqnfg1jj1d8WCXx-193" value="" style="endArrow=none;html=1;rounded=0;exitX=1;exitY=0.75;exitDx=0;exitDy=0;entryX=0.326;entryY=-0.08;entryDx=0;entryDy=0;entryPerimeter=0;" edge="1" parent="1" source="c13vCLqnfg1jj1d8WCXx-136" target="c13vCLqnfg1jj1d8WCXx-163">
          <mxGeometry width="50" height="50" relative="1" as="geometry">
            <mxPoint x="350" y="-90" as="sourcePoint" />
            <mxPoint x="400" y="-140" as="targetPoint" />
          </mxGeometry>
        </mxCell>
        <mxCell id="c13vCLqnfg1jj1d8WCXx-194" value="" style="endArrow=none;html=1;rounded=0;entryX=0;entryY=0.25;entryDx=0;entryDy=0;exitX=1;exitY=0.5;exitDx=0;exitDy=0;" edge="1" parent="1" source="c13vCLqnfg1jj1d8WCXx-164" target="c13vCLqnfg1jj1d8WCXx-128">
          <mxGeometry width="50" height="50" relative="1" as="geometry">
            <mxPoint x="350" y="-90" as="sourcePoint" />
            <mxPoint x="400" y="-140" as="targetPoint" />
          </mxGeometry>
        </mxCell>
        <mxCell id="c13vCLqnfg1jj1d8WCXx-195" value="" style="endArrow=none;html=1;rounded=0;entryX=0.75;entryY=1;entryDx=0;entryDy=0;exitX=0;exitY=0;exitDx=0;exitDy=0;" edge="1" parent="1" source="c13vCLqnfg1jj1d8WCXx-165" target="c13vCLqnfg1jj1d8WCXx-128">
          <mxGeometry width="50" height="50" relative="1" as="geometry">
            <mxPoint x="350" y="-90" as="sourcePoint" />
            <mxPoint x="400" y="-140" as="targetPoint" />
          </mxGeometry>
        </mxCell>
        <mxCell id="c13vCLqnfg1jj1d8WCXx-196" value="lineups" style="rounded=1;whiteSpace=wrap;html=1;" vertex="1" parent="1">
          <mxGeometry x="395" y="-380" width="80" height="40" as="geometry" />
        </mxCell>
        <mxCell id="c13vCLqnfg1jj1d8WCXx-199" value="has" style="shape=rhombus;perimeter=rhombusPerimeter;whiteSpace=wrap;html=1;align=center;" vertex="1" parent="1">
          <mxGeometry x="232.5" y="-410" width="72.5" height="40" as="geometry" />
        </mxCell>
        <mxCell id="c13vCLqnfg1jj1d8WCXx-200" value="" style="endArrow=none;html=1;rounded=0;entryX=1;entryY=0.5;entryDx=0;entryDy=0;exitX=0;exitY=0.5;exitDx=0;exitDy=0;" edge="1" parent="1" source="c13vCLqnfg1jj1d8WCXx-199" target="c13vCLqnfg1jj1d8WCXx-79">
          <mxGeometry width="50" height="50" relative="1" as="geometry">
            <mxPoint x="830" y="10" as="sourcePoint" />
            <mxPoint x="880" y="-40" as="targetPoint" />
          </mxGeometry>
        </mxCell>
        <mxCell id="c13vCLqnfg1jj1d8WCXx-201" value="" style="endArrow=none;html=1;rounded=0;entryX=0;entryY=0.5;entryDx=0;entryDy=0;exitX=1;exitY=0.5;exitDx=0;exitDy=0;" edge="1" parent="1" source="c13vCLqnfg1jj1d8WCXx-199" target="c13vCLqnfg1jj1d8WCXx-196">
          <mxGeometry width="50" height="50" relative="1" as="geometry">
            <mxPoint x="830" y="10" as="sourcePoint" />
            <mxPoint x="880" y="-40" as="targetPoint" />
          </mxGeometry>
        </mxCell>
        <mxCell id="c13vCLqnfg1jj1d8WCXx-202" value="" style="endArrow=none;html=1;rounded=0;entryX=1;entryY=0.5;entryDx=0;entryDy=0;exitX=0;exitY=0.5;exitDx=0;exitDy=0;" edge="1" parent="1" source="c13vCLqnfg1jj1d8WCXx-203" target="c13vCLqnfg1jj1d8WCXx-196">
          <mxGeometry width="50" height="50" relative="1" as="geometry">
            <mxPoint x="830" y="10" as="sourcePoint" />
            <mxPoint x="880" y="-40" as="targetPoint" />
          </mxGeometry>
        </mxCell>
        <mxCell id="c13vCLqnfg1jj1d8WCXx-203" value="has" style="shape=rhombus;perimeter=rhombusPerimeter;whiteSpace=wrap;html=1;align=center;" vertex="1" parent="1">
          <mxGeometry x="663.75" y="-340" width="72.5" height="40" as="geometry" />
        </mxCell>
        <mxCell id="c13vCLqnfg1jj1d8WCXx-206" value="" style="endArrow=none;html=1;rounded=0;entryX=0.5;entryY=0;entryDx=0;entryDy=0;exitX=0;exitY=1;exitDx=0;exitDy=0;" edge="1" parent="1" source="c13vCLqnfg1jj1d8WCXx-140" target="c13vCLqnfg1jj1d8WCXx-203">
          <mxGeometry width="50" height="50" relative="1" as="geometry">
            <mxPoint x="606" y="-360" as="sourcePoint" />
            <mxPoint x="880" y="-40" as="targetPoint" />
          </mxGeometry>
        </mxCell>
        <mxCell id="c13vCLqnfg1jj1d8WCXx-208" value="" style="endArrow=none;html=1;rounded=0;entryX=0.5;entryY=0;entryDx=0;entryDy=0;exitX=0;exitY=0.75;exitDx=0;exitDy=0;" edge="1" parent="1" source="c13vCLqnfg1jj1d8WCXx-140" target="c13vCLqnfg1jj1d8WCXx-199">
          <mxGeometry width="50" height="50" relative="1" as="geometry">
            <mxPoint x="830" y="-90" as="sourcePoint" />
            <mxPoint x="880" y="-140" as="targetPoint" />
          </mxGeometry>
        </mxCell>
        <mxCell id="c13vCLqnfg1jj1d8WCXx-211" value="Competitions" style="rounded=1;whiteSpace=wrap;html=1;" vertex="1" parent="1">
          <mxGeometry x="375" y="-520" width="120" height="60" as="geometry" />
        </mxCell>
        <mxCell id="c13vCLqnfg1jj1d8WCXx-214" value="has" style="shape=rhombus;perimeter=rhombusPerimeter;whiteSpace=wrap;html=1;align=center;" vertex="1" parent="1">
          <mxGeometry x="120" y="-510" width="72.5" height="40" as="geometry" />
        </mxCell>
        <mxCell id="c13vCLqnfg1jj1d8WCXx-215" value="" style="endArrow=none;html=1;rounded=0;entryX=0;entryY=0.5;entryDx=0;entryDy=0;exitX=0.5;exitY=0;exitDx=0;exitDy=0;" edge="1" parent="1" source="c13vCLqnfg1jj1d8WCXx-79" target="c13vCLqnfg1jj1d8WCXx-214">
          <mxGeometry width="50" height="50" relative="1" as="geometry">
            <mxPoint x="830" y="-190" as="sourcePoint" />
            <mxPoint x="880" y="-240" as="targetPoint" />
          </mxGeometry>
        </mxCell>
        <mxCell id="c13vCLqnfg1jj1d8WCXx-216" value="" style="endArrow=none;html=1;rounded=0;entryX=0;entryY=0.5;entryDx=0;entryDy=0;exitX=1;exitY=0.5;exitDx=0;exitDy=0;" edge="1" parent="1" source="c13vCLqnfg1jj1d8WCXx-214" target="c13vCLqnfg1jj1d8WCXx-211">
          <mxGeometry width="50" height="50" relative="1" as="geometry">
            <mxPoint x="830" y="-190" as="sourcePoint" />
            <mxPoint x="880" y="-240" as="targetPoint" />
          </mxGeometry>
        </mxCell>
        <mxCell id="c13vCLqnfg1jj1d8WCXx-217" value="has" style="shape=rhombus;perimeter=rhombusPerimeter;whiteSpace=wrap;html=1;align=center;" vertex="1" parent="1">
          <mxGeometry x="778" y="-510" width="72.5" height="40" as="geometry" />
        </mxCell>
        <mxCell id="c13vCLqnfg1jj1d8WCXx-218" value="" style="endArrow=none;html=1;rounded=0;entryX=1;entryY=0.5;entryDx=0;entryDy=0;exitX=0;exitY=0.5;exitDx=0;exitDy=0;" edge="1" parent="1" source="c13vCLqnfg1jj1d8WCXx-217" target="c13vCLqnfg1jj1d8WCXx-211">
          <mxGeometry width="50" height="50" relative="1" as="geometry">
            <mxPoint x="830" y="-190" as="sourcePoint" />
            <mxPoint x="880" y="-240" as="targetPoint" />
          </mxGeometry>
        </mxCell>
        <mxCell id="c13vCLqnfg1jj1d8WCXx-219" value="" style="endArrow=none;html=1;rounded=0;entryX=1;entryY=0.5;entryDx=0;entryDy=0;exitX=0.5;exitY=0;exitDx=0;exitDy=0;" edge="1" parent="1" source="c13vCLqnfg1jj1d8WCXx-140" target="c13vCLqnfg1jj1d8WCXx-217">
          <mxGeometry width="50" height="50" relative="1" as="geometry">
            <mxPoint x="830" y="-190" as="sourcePoint" />
            <mxPoint x="880" y="-240" as="targetPoint" />
          </mxGeometry>
        </mxCell>
        <mxCell id="c13vCLqnfg1jj1d8WCXx-220" value="Competition ID" style="ellipse;whiteSpace=wrap;html=1;" vertex="1" parent="1">
          <mxGeometry x="72.5" y="-610" width="90" height="40" as="geometry" />
        </mxCell>
        <mxCell id="c13vCLqnfg1jj1d8WCXx-221" value="Competition Gender" style="ellipse;whiteSpace=wrap;html=1;" vertex="1" parent="1">
          <mxGeometry x="643.75" y="-610" width="92.5" height="40" as="geometry" />
        </mxCell>
        <mxCell id="c13vCLqnfg1jj1d8WCXx-222" value="Match Available" style="ellipse;whiteSpace=wrap;html=1;" vertex="1" parent="1">
          <mxGeometry x="265" y="-480" width="70" height="40" as="geometry" />
        </mxCell>
        <mxCell id="c13vCLqnfg1jj1d8WCXx-223" value="Match Updated" style="ellipse;whiteSpace=wrap;html=1;" vertex="1" parent="1">
          <mxGeometry x="520" y="-460" width="60" height="40" as="geometry" />
        </mxCell>
        <mxCell id="c13vCLqnfg1jj1d8WCXx-224" value="Season ID" style="ellipse;whiteSpace=wrap;html=1;" vertex="1" parent="1">
          <mxGeometry x="260" y="-610" width="80" height="40" as="geometry" />
        </mxCell>
        <mxCell id="c13vCLqnfg1jj1d8WCXx-225" value="Season Name" style="ellipse;whiteSpace=wrap;html=1;" vertex="1" parent="1">
          <mxGeometry x="650" y="-490" width="55" height="40" as="geometry" />
        </mxCell>
        <mxCell id="c13vCLqnfg1jj1d8WCXx-227" value="Competition Name" style="ellipse;whiteSpace=wrap;html=1;" vertex="1" parent="1">
          <mxGeometry x="360" y="-610" width="90" height="40" as="geometry" />
        </mxCell>
        <mxCell id="c13vCLqnfg1jj1d8WCXx-228" value="Country Name" style="ellipse;whiteSpace=wrap;html=1;" vertex="1" parent="1">
          <mxGeometry x="770" y="-610" width="60" height="40" as="geometry" />
        </mxCell>
        <mxCell id="c13vCLqnfg1jj1d8WCXx-229" value="" style="endArrow=none;html=1;rounded=0;entryX=0;entryY=0;entryDx=0;entryDy=0;exitX=1;exitY=1;exitDx=0;exitDy=0;" edge="1" parent="1" source="c13vCLqnfg1jj1d8WCXx-220" target="c13vCLqnfg1jj1d8WCXx-211">
          <mxGeometry width="50" height="50" relative="1" as="geometry">
            <mxPoint x="400" y="-390" as="sourcePoint" />
            <mxPoint x="450" y="-440" as="targetPoint" />
          </mxGeometry>
        </mxCell>
        <mxCell id="c13vCLqnfg1jj1d8WCXx-230" value="" style="endArrow=none;html=1;rounded=0;entryX=1;entryY=1;entryDx=0;entryDy=0;exitX=0.25;exitY=0;exitDx=0;exitDy=0;" edge="1" parent="1" source="c13vCLqnfg1jj1d8WCXx-211" target="c13vCLqnfg1jj1d8WCXx-224">
          <mxGeometry width="50" height="50" relative="1" as="geometry">
            <mxPoint x="400" y="-390" as="sourcePoint" />
            <mxPoint x="450" y="-440" as="targetPoint" />
          </mxGeometry>
        </mxCell>
        <mxCell id="c13vCLqnfg1jj1d8WCXx-231" value="" style="endArrow=none;html=1;rounded=0;entryX=1;entryY=1;entryDx=0;entryDy=0;exitX=0.5;exitY=0;exitDx=0;exitDy=0;" edge="1" parent="1" source="c13vCLqnfg1jj1d8WCXx-211" target="c13vCLqnfg1jj1d8WCXx-227">
          <mxGeometry width="50" height="50" relative="1" as="geometry">
            <mxPoint x="400" y="-390" as="sourcePoint" />
            <mxPoint x="450" y="-440" as="targetPoint" />
          </mxGeometry>
        </mxCell>
        <mxCell id="c13vCLqnfg1jj1d8WCXx-232" value="" style="endArrow=none;html=1;rounded=0;entryX=1;entryY=1;entryDx=0;entryDy=0;exitX=0.75;exitY=0;exitDx=0;exitDy=0;" edge="1" parent="1" source="c13vCLqnfg1jj1d8WCXx-211" target="c13vCLqnfg1jj1d8WCXx-221">
          <mxGeometry width="50" height="50" relative="1" as="geometry">
            <mxPoint x="400" y="-390" as="sourcePoint" />
            <mxPoint x="450" y="-440" as="targetPoint" />
          </mxGeometry>
        </mxCell>
        <mxCell id="c13vCLqnfg1jj1d8WCXx-233" value="" style="endArrow=none;html=1;rounded=0;entryX=1;entryY=1;entryDx=0;entryDy=0;exitX=1;exitY=0.25;exitDx=0;exitDy=0;" edge="1" parent="1" source="c13vCLqnfg1jj1d8WCXx-211" target="c13vCLqnfg1jj1d8WCXx-228">
          <mxGeometry width="50" height="50" relative="1" as="geometry">
            <mxPoint x="400" y="-390" as="sourcePoint" />
            <mxPoint x="450" y="-440" as="targetPoint" />
          </mxGeometry>
        </mxCell>
        <mxCell id="c13vCLqnfg1jj1d8WCXx-234" value="" style="endArrow=none;html=1;rounded=0;entryX=0.5;entryY=1;entryDx=0;entryDy=0;exitX=1;exitY=0.75;exitDx=0;exitDy=0;" edge="1" parent="1" source="c13vCLqnfg1jj1d8WCXx-211" target="c13vCLqnfg1jj1d8WCXx-225">
          <mxGeometry width="50" height="50" relative="1" as="geometry">
            <mxPoint x="400" y="-390" as="sourcePoint" />
            <mxPoint x="450" y="-440" as="targetPoint" />
          </mxGeometry>
        </mxCell>
        <mxCell id="c13vCLqnfg1jj1d8WCXx-235" value="" style="endArrow=none;html=1;rounded=0;entryX=0;entryY=0.5;entryDx=0;entryDy=0;exitX=0.75;exitY=1;exitDx=0;exitDy=0;" edge="1" parent="1" source="c13vCLqnfg1jj1d8WCXx-211" target="c13vCLqnfg1jj1d8WCXx-223">
          <mxGeometry width="50" height="50" relative="1" as="geometry">
            <mxPoint x="400" y="-390" as="sourcePoint" />
            <mxPoint x="450" y="-440" as="targetPoint" />
          </mxGeometry>
        </mxCell>
        <mxCell id="c13vCLqnfg1jj1d8WCXx-236" value="" style="endArrow=none;html=1;rounded=0;entryX=0.5;entryY=1;entryDx=0;entryDy=0;exitX=0.5;exitY=1;exitDx=0;exitDy=0;" edge="1" parent="1" source="c13vCLqnfg1jj1d8WCXx-211" target="c13vCLqnfg1jj1d8WCXx-222">
          <mxGeometry width="50" height="50" relative="1" as="geometry">
            <mxPoint x="400" y="-390" as="sourcePoint" />
            <mxPoint x="450" y="-440" as="targetPoint" />
          </mxGeometry>
        </mxCell>
        <mxCell id="c13vCLqnfg1jj1d8WCXx-237" value="Player ID" style="ellipse;whiteSpace=wrap;html=1;" vertex="1" parent="1">
          <mxGeometry x="265" y="-330" width="60" height="40" as="geometry" />
        </mxCell>
        <mxCell id="c13vCLqnfg1jj1d8WCXx-238" value="Player NickName" style="ellipse;whiteSpace=wrap;html=1;" vertex="1" parent="1">
          <mxGeometry x="547.5" y="-305" width="80" height="50" as="geometry" />
        </mxCell>
        <mxCell id="c13vCLqnfg1jj1d8WCXx-239" value="Jersey Number" style="ellipse;whiteSpace=wrap;html=1;" vertex="1" parent="1">
          <mxGeometry x="355" y="-315" width="70" height="50" as="geometry" />
        </mxCell>
        <mxCell id="c13vCLqnfg1jj1d8WCXx-240" value="Country" style="ellipse;whiteSpace=wrap;html=1;" vertex="1" parent="1">
          <mxGeometry x="435" y="-300" width="60" height="40" as="geometry" />
        </mxCell>
        <mxCell id="c13vCLqnfg1jj1d8WCXx-241" value="" style="endArrow=none;html=1;rounded=0;entryX=0;entryY=1;entryDx=0;entryDy=0;exitX=1;exitY=0;exitDx=0;exitDy=0;" edge="1" parent="1" source="c13vCLqnfg1jj1d8WCXx-237" target="c13vCLqnfg1jj1d8WCXx-196">
          <mxGeometry width="50" height="50" relative="1" as="geometry">
            <mxPoint x="400" y="-190" as="sourcePoint" />
            <mxPoint x="450" y="-240" as="targetPoint" />
          </mxGeometry>
        </mxCell>
        <mxCell id="c13vCLqnfg1jj1d8WCXx-242" value="" style="endArrow=none;html=1;rounded=0;entryX=0.5;entryY=1;entryDx=0;entryDy=0;exitX=1;exitY=0;exitDx=0;exitDy=0;" edge="1" parent="1" source="c13vCLqnfg1jj1d8WCXx-239" target="c13vCLqnfg1jj1d8WCXx-196">
          <mxGeometry width="50" height="50" relative="1" as="geometry">
            <mxPoint x="400" y="-190" as="sourcePoint" />
            <mxPoint x="450" y="-240" as="targetPoint" />
          </mxGeometry>
        </mxCell>
        <mxCell id="c13vCLqnfg1jj1d8WCXx-243" value="" style="endArrow=none;html=1;rounded=0;entryX=0.75;entryY=1;entryDx=0;entryDy=0;exitX=0;exitY=0.5;exitDx=0;exitDy=0;" edge="1" parent="1" source="c13vCLqnfg1jj1d8WCXx-240" target="c13vCLqnfg1jj1d8WCXx-196">
          <mxGeometry width="50" height="50" relative="1" as="geometry">
            <mxPoint x="400" y="-190" as="sourcePoint" />
            <mxPoint x="450" y="-240" as="targetPoint" />
          </mxGeometry>
        </mxCell>
        <mxCell id="c13vCLqnfg1jj1d8WCXx-245" value="" style="endArrow=none;html=1;rounded=0;entryX=0;entryY=0;entryDx=0;entryDy=0;exitX=1;exitY=1;exitDx=0;exitDy=0;" edge="1" parent="1" source="c13vCLqnfg1jj1d8WCXx-196" target="c13vCLqnfg1jj1d8WCXx-238">
          <mxGeometry width="50" height="50" relative="1" as="geometry">
            <mxPoint x="400" y="-190" as="sourcePoint" />
            <mxPoint x="450" y="-240" as="targetPoint" />
          </mxGeometry>
        </mxCell>
        <mxCell id="c13vCLqnfg1jj1d8WCXx-422" value="" style="endArrow=none;html=1;rounded=0;entryX=0.5;entryY=1;entryDx=0;entryDy=0;exitX=0.5;exitY=0;exitDx=0;exitDy=0;" edge="1" parent="1" source="c13vCLqnfg1jj1d8WCXx-145" target="c13vCLqnfg1jj1d8WCXx-143">
          <mxGeometry width="50" height="50" relative="1" as="geometry">
            <mxPoint x="1080" y="-70" as="sourcePoint" />
            <mxPoint x="1130" y="-120" as="targetPoint" />
          </mxGeometry>
        </mxCell>
        <mxCell id="c13vCLqnfg1jj1d8WCXx-423" value="" style="endArrow=none;html=1;rounded=0;entryX=1;entryY=0.5;entryDx=0;entryDy=0;exitX=0.5;exitY=0;exitDx=0;exitDy=0;" edge="1" parent="1" source="c13vCLqnfg1jj1d8WCXx-148" target="c13vCLqnfg1jj1d8WCXx-143">
          <mxGeometry width="50" height="50" relative="1" as="geometry">
            <mxPoint x="1080" y="-70" as="sourcePoint" />
            <mxPoint x="1130" y="-120" as="targetPoint" />
          </mxGeometry>
        </mxCell>
        <mxCell id="c13vCLqnfg1jj1d8WCXx-424" value="" style="endArrow=none;html=1;rounded=0;entryX=0.25;entryY=1;entryDx=0;entryDy=0;exitX=1;exitY=0;exitDx=0;exitDy=0;" edge="1" parent="1" source="c13vCLqnfg1jj1d8WCXx-144" target="c13vCLqnfg1jj1d8WCXx-143">
          <mxGeometry width="50" height="50" relative="1" as="geometry">
            <mxPoint x="1080" y="-70" as="sourcePoint" />
            <mxPoint x="1130" y="-120" as="targetPoint" />
          </mxGeometry>
        </mxCell>
        <mxCell id="c13vCLqnfg1jj1d8WCXx-429" value="Events" style="rounded=1;whiteSpace=wrap;html=1;" vertex="1" parent="1">
          <mxGeometry x="1165" y="-610" width="80" height="40" as="geometry" />
        </mxCell>
        <mxCell id="c13vCLqnfg1jj1d8WCXx-430" value="Ball Receipt" style="ellipse;whiteSpace=wrap;html=1;" vertex="1" parent="1">
          <mxGeometry x="1075" y="-560" width="70" height="40" as="geometry" />
        </mxCell>
        <mxCell id="c13vCLqnfg1jj1d8WCXx-431" value="Ball Recovery" style="ellipse;whiteSpace=wrap;html=1;" vertex="1" parent="1">
          <mxGeometry x="1245" y="-560" width="70" height="40" as="geometry" />
        </mxCell>
        <mxCell id="c13vCLqnfg1jj1d8WCXx-432" value="Dispossessed" style="ellipse;whiteSpace=wrap;html=1;" vertex="1" parent="1">
          <mxGeometry x="1100" y="-500" width="85" height="40" as="geometry" />
        </mxCell>
        <mxCell id="c13vCLqnfg1jj1d8WCXx-433" value="Duel" style="ellipse;whiteSpace=wrap;html=1;" vertex="1" parent="1">
          <mxGeometry x="1230" y="-500" width="65" height="40" as="geometry" />
        </mxCell>
        <mxCell id="c13vCLqnfg1jj1d8WCXx-434" value="Camera On" style="ellipse;whiteSpace=wrap;html=1;" vertex="1" parent="1">
          <mxGeometry x="1080" y="-440" width="70" height="40" as="geometry" />
        </mxCell>
        <mxCell id="c13vCLqnfg1jj1d8WCXx-435" value="Block" style="ellipse;whiteSpace=wrap;html=1;" vertex="1" parent="1">
          <mxGeometry x="1240" y="-440" width="70" height="40" as="geometry" />
        </mxCell>
        <mxCell id="c13vCLqnfg1jj1d8WCXx-436" value="Offside" style="ellipse;whiteSpace=wrap;html=1;" vertex="1" parent="1">
          <mxGeometry x="1075" y="-370" width="70" height="40" as="geometry" />
        </mxCell>
        <mxCell id="c13vCLqnfg1jj1d8WCXx-437" value="Clearance" style="ellipse;whiteSpace=wrap;html=1;" vertex="1" parent="1">
          <mxGeometry x="1240" y="-370" width="70" height="40" as="geometry" />
        </mxCell>
        <mxCell id="c13vCLqnfg1jj1d8WCXx-438" value="Interception" style="ellipse;whiteSpace=wrap;html=1;" vertex="1" parent="1">
          <mxGeometry x="1075" y="-300" width="70" height="40" as="geometry" />
        </mxCell>
        <mxCell id="c13vCLqnfg1jj1d8WCXx-439" value="Dribble" style="ellipse;whiteSpace=wrap;html=1;" vertex="1" parent="1">
          <mxGeometry x="1240" y="-300" width="70" height="40" as="geometry" />
        </mxCell>
        <mxCell id="c13vCLqnfg1jj1d8WCXx-440" value="Shot" style="ellipse;whiteSpace=wrap;html=1;" vertex="1" parent="1">
          <mxGeometry x="1075" y="-220" width="70" height="40" as="geometry" />
        </mxCell>
        <mxCell id="c13vCLqnfg1jj1d8WCXx-441" value="Pressure" style="ellipse;whiteSpace=wrap;html=1;" vertex="1" parent="1">
          <mxGeometry x="1240" y="-220" width="70" height="40" as="geometry" />
        </mxCell>
        <mxCell id="c13vCLqnfg1jj1d8WCXx-442" value="Half Start" style="ellipse;whiteSpace=wrap;html=1;" vertex="1" parent="1">
          <mxGeometry x="1070" y="-150" width="70" height="40" as="geometry" />
        </mxCell>
        <mxCell id="c13vCLqnfg1jj1d8WCXx-443" value="Substitutuion" style="ellipse;whiteSpace=wrap;html=1;" vertex="1" parent="1">
          <mxGeometry x="1242.5" y="-150" width="75" height="40" as="geometry" />
        </mxCell>
        <mxCell id="c13vCLqnfg1jj1d8WCXx-444" value="Own Goal Against" style="ellipse;whiteSpace=wrap;html=1;" vertex="1" parent="1">
          <mxGeometry x="1055" y="-100" width="75" height="40" as="geometry" />
        </mxCell>
        <mxCell id="c13vCLqnfg1jj1d8WCXx-445" value="Foul Won" style="ellipse;whiteSpace=wrap;html=1;" vertex="1" parent="1">
          <mxGeometry x="1255" y="-100" width="75" height="40" as="geometry" />
        </mxCell>
        <mxCell id="c13vCLqnfg1jj1d8WCXx-446" value="Foul Committed" style="ellipse;whiteSpace=wrap;html=1;" vertex="1" parent="1">
          <mxGeometry x="1050" y="-50" width="75" height="40" as="geometry" />
        </mxCell>
        <mxCell id="c13vCLqnfg1jj1d8WCXx-447" value="Goal Keeper" style="ellipse;whiteSpace=wrap;html=1;" vertex="1" parent="1">
          <mxGeometry x="1255" y="-40" width="75" height="40" as="geometry" />
        </mxCell>
        <mxCell id="c13vCLqnfg1jj1d8WCXx-448" value="Bad Behaviour" style="ellipse;whiteSpace=wrap;html=1;" vertex="1" parent="1">
          <mxGeometry x="1050" y="10" width="75" height="40" as="geometry" />
        </mxCell>
        <mxCell id="c13vCLqnfg1jj1d8WCXx-449" value="Own Goal For" style="ellipse;whiteSpace=wrap;html=1;" vertex="1" parent="1">
          <mxGeometry x="1255" y="10" width="75" height="40" as="geometry" />
        </mxCell>
        <mxCell id="c13vCLqnfg1jj1d8WCXx-450" value="Player On" style="ellipse;whiteSpace=wrap;html=1;" vertex="1" parent="1">
          <mxGeometry x="1050" y="60" width="75" height="40" as="geometry" />
        </mxCell>
        <mxCell id="c13vCLqnfg1jj1d8WCXx-451" value="Player Off" style="ellipse;whiteSpace=wrap;html=1;" vertex="1" parent="1">
          <mxGeometry x="1255" y="60" width="75" height="40" as="geometry" />
        </mxCell>
        <mxCell id="c13vCLqnfg1jj1d8WCXx-452" value="Shield" style="ellipse;whiteSpace=wrap;html=1;" vertex="1" parent="1">
          <mxGeometry x="1055" y="110" width="75" height="40" as="geometry" />
        </mxCell>
        <mxCell id="c13vCLqnfg1jj1d8WCXx-453" value="Pass" style="ellipse;whiteSpace=wrap;html=1;" vertex="1" parent="1">
          <mxGeometry x="1255" y="110" width="75" height="40" as="geometry" />
        </mxCell>
        <mxCell id="c13vCLqnfg1jj1d8WCXx-454" value="50/50" style="ellipse;whiteSpace=wrap;html=1;" vertex="1" parent="1">
          <mxGeometry x="1055" y="160" width="75" height="40" as="geometry" />
        </mxCell>
        <mxCell id="c13vCLqnfg1jj1d8WCXx-455" value="Half End" style="ellipse;whiteSpace=wrap;html=1;" vertex="1" parent="1">
          <mxGeometry x="1255" y="160" width="75" height="40" as="geometry" />
        </mxCell>
        <mxCell id="c13vCLqnfg1jj1d8WCXx-456" value="Starting XI" style="ellipse;whiteSpace=wrap;html=1;" vertex="1" parent="1">
          <mxGeometry x="1055" y="210" width="75" height="40" as="geometry" />
        </mxCell>
        <mxCell id="c13vCLqnfg1jj1d8WCXx-457" value="Tactical Shift" style="ellipse;whiteSpace=wrap;html=1;" vertex="1" parent="1">
          <mxGeometry x="1255" y="210" width="75" height="40" as="geometry" />
        </mxCell>
        <mxCell id="c13vCLqnfg1jj1d8WCXx-458" value="" style="endArrow=none;html=1;rounded=0;" edge="1" parent="1">
          <mxGeometry width="50" height="50" relative="1" as="geometry">
            <mxPoint x="1200" y="230" as="sourcePoint" />
            <mxPoint x="1210" y="-570" as="targetPoint" />
          </mxGeometry>
        </mxCell>
        <mxCell id="c13vCLqnfg1jj1d8WCXx-459" value="" style="endArrow=none;html=1;rounded=0;entryX=1;entryY=0.5;entryDx=0;entryDy=0;exitX=0;exitY=0.5;exitDx=0;exitDy=0;" edge="1" parent="1" source="c13vCLqnfg1jj1d8WCXx-431" target="c13vCLqnfg1jj1d8WCXx-430">
          <mxGeometry width="50" height="50" relative="1" as="geometry">
            <mxPoint x="1200" y="-540" as="sourcePoint" />
            <mxPoint x="1320" y="-380" as="targetPoint" />
          </mxGeometry>
        </mxCell>
        <mxCell id="c13vCLqnfg1jj1d8WCXx-460" value="" style="endArrow=none;html=1;rounded=0;entryX=0;entryY=0.5;entryDx=0;entryDy=0;exitX=1;exitY=0.5;exitDx=0;exitDy=0;" edge="1" parent="1" source="c13vCLqnfg1jj1d8WCXx-432" target="c13vCLqnfg1jj1d8WCXx-433">
          <mxGeometry width="50" height="50" relative="1" as="geometry">
            <mxPoint x="1270" y="-330" as="sourcePoint" />
            <mxPoint x="1320" y="-380" as="targetPoint" />
          </mxGeometry>
        </mxCell>
        <mxCell id="c13vCLqnfg1jj1d8WCXx-461" value="" style="endArrow=none;html=1;rounded=0;entryX=0;entryY=0.5;entryDx=0;entryDy=0;exitX=1;exitY=0.5;exitDx=0;exitDy=0;" edge="1" parent="1" source="c13vCLqnfg1jj1d8WCXx-434" target="c13vCLqnfg1jj1d8WCXx-435">
          <mxGeometry width="50" height="50" relative="1" as="geometry">
            <mxPoint x="1270" y="-330" as="sourcePoint" />
            <mxPoint x="1320" y="-380" as="targetPoint" />
          </mxGeometry>
        </mxCell>
        <mxCell id="c13vCLqnfg1jj1d8WCXx-462" value="" style="endArrow=none;html=1;rounded=0;entryX=1;entryY=0.5;entryDx=0;entryDy=0;exitX=0;exitY=0.5;exitDx=0;exitDy=0;" edge="1" parent="1" source="c13vCLqnfg1jj1d8WCXx-437" target="c13vCLqnfg1jj1d8WCXx-436">
          <mxGeometry width="50" height="50" relative="1" as="geometry">
            <mxPoint x="1270" y="-330" as="sourcePoint" />
            <mxPoint x="1320" y="-380" as="targetPoint" />
          </mxGeometry>
        </mxCell>
        <mxCell id="c13vCLqnfg1jj1d8WCXx-463" value="" style="endArrow=none;html=1;rounded=0;entryX=1;entryY=0.5;entryDx=0;entryDy=0;" edge="1" parent="1" source="c13vCLqnfg1jj1d8WCXx-439" target="c13vCLqnfg1jj1d8WCXx-438">
          <mxGeometry width="50" height="50" relative="1" as="geometry">
            <mxPoint x="1270" y="-330" as="sourcePoint" />
            <mxPoint x="1320" y="-380" as="targetPoint" />
          </mxGeometry>
        </mxCell>
        <mxCell id="c13vCLqnfg1jj1d8WCXx-464" value="" style="endArrow=none;html=1;rounded=0;entryX=1;entryY=0.5;entryDx=0;entryDy=0;exitX=0;exitY=0.5;exitDx=0;exitDy=0;" edge="1" parent="1" source="c13vCLqnfg1jj1d8WCXx-441" target="c13vCLqnfg1jj1d8WCXx-440">
          <mxGeometry width="50" height="50" relative="1" as="geometry">
            <mxPoint x="1260" y="-200" as="sourcePoint" />
            <mxPoint x="1320" y="-180" as="targetPoint" />
          </mxGeometry>
        </mxCell>
        <mxCell id="c13vCLqnfg1jj1d8WCXx-465" value="" style="endArrow=none;html=1;rounded=0;exitX=1;exitY=0.5;exitDx=0;exitDy=0;entryX=0;entryY=0.5;entryDx=0;entryDy=0;" edge="1" parent="1" source="c13vCLqnfg1jj1d8WCXx-442" target="c13vCLqnfg1jj1d8WCXx-443">
          <mxGeometry width="50" height="50" relative="1" as="geometry">
            <mxPoint x="1270" y="-130" as="sourcePoint" />
            <mxPoint x="1320" y="-180" as="targetPoint" />
          </mxGeometry>
        </mxCell>
        <mxCell id="c13vCLqnfg1jj1d8WCXx-466" value="" style="endArrow=none;html=1;rounded=0;entryX=1;entryY=0.5;entryDx=0;entryDy=0;exitX=0;exitY=0.5;exitDx=0;exitDy=0;" edge="1" parent="1" source="c13vCLqnfg1jj1d8WCXx-445" target="c13vCLqnfg1jj1d8WCXx-444">
          <mxGeometry width="50" height="50" relative="1" as="geometry">
            <mxPoint x="1270" y="-130" as="sourcePoint" />
            <mxPoint x="1320" y="-180" as="targetPoint" />
          </mxGeometry>
        </mxCell>
        <mxCell id="c13vCLqnfg1jj1d8WCXx-467" value="" style="endArrow=none;html=1;rounded=0;entryX=0;entryY=0.3;entryDx=0;entryDy=0;entryPerimeter=0;exitX=1;exitY=0.5;exitDx=0;exitDy=0;" edge="1" parent="1" source="c13vCLqnfg1jj1d8WCXx-446" target="c13vCLqnfg1jj1d8WCXx-447">
          <mxGeometry width="50" height="50" relative="1" as="geometry">
            <mxPoint x="1270" y="-130" as="sourcePoint" />
            <mxPoint x="1320" y="-180" as="targetPoint" />
          </mxGeometry>
        </mxCell>
        <mxCell id="c13vCLqnfg1jj1d8WCXx-468" value="" style="endArrow=none;html=1;rounded=0;entryX=0;entryY=0.5;entryDx=0;entryDy=0;exitX=1;exitY=0.5;exitDx=0;exitDy=0;" edge="1" parent="1" source="c13vCLqnfg1jj1d8WCXx-448" target="c13vCLqnfg1jj1d8WCXx-449">
          <mxGeometry width="50" height="50" relative="1" as="geometry">
            <mxPoint x="1270" y="-130" as="sourcePoint" />
            <mxPoint x="1320" y="-180" as="targetPoint" />
          </mxGeometry>
        </mxCell>
        <mxCell id="c13vCLqnfg1jj1d8WCXx-469" value="" style="endArrow=none;html=1;rounded=0;entryX=0;entryY=0.5;entryDx=0;entryDy=0;exitX=1;exitY=0.5;exitDx=0;exitDy=0;" edge="1" parent="1" source="c13vCLqnfg1jj1d8WCXx-450" target="c13vCLqnfg1jj1d8WCXx-451">
          <mxGeometry width="50" height="50" relative="1" as="geometry">
            <mxPoint x="1270" y="70" as="sourcePoint" />
            <mxPoint x="1320" y="20" as="targetPoint" />
          </mxGeometry>
        </mxCell>
        <mxCell id="c13vCLqnfg1jj1d8WCXx-470" value="" style="endArrow=none;html=1;rounded=0;entryX=0;entryY=0.5;entryDx=0;entryDy=0;exitX=1;exitY=0.5;exitDx=0;exitDy=0;" edge="1" parent="1" source="c13vCLqnfg1jj1d8WCXx-452" target="c13vCLqnfg1jj1d8WCXx-453">
          <mxGeometry width="50" height="50" relative="1" as="geometry">
            <mxPoint x="1270" y="70" as="sourcePoint" />
            <mxPoint x="1320" y="20" as="targetPoint" />
          </mxGeometry>
        </mxCell>
        <mxCell id="c13vCLqnfg1jj1d8WCXx-471" value="" style="endArrow=none;html=1;rounded=0;entryX=0;entryY=0.5;entryDx=0;entryDy=0;exitX=1;exitY=0.5;exitDx=0;exitDy=0;" edge="1" parent="1" source="c13vCLqnfg1jj1d8WCXx-454" target="c13vCLqnfg1jj1d8WCXx-455">
          <mxGeometry width="50" height="50" relative="1" as="geometry">
            <mxPoint x="1270" y="70" as="sourcePoint" />
            <mxPoint x="1320" y="20" as="targetPoint" />
          </mxGeometry>
        </mxCell>
        <mxCell id="c13vCLqnfg1jj1d8WCXx-472" value="" style="endArrow=none;html=1;rounded=0;exitX=0;exitY=0.5;exitDx=0;exitDy=0;entryX=1;entryY=0.5;entryDx=0;entryDy=0;" edge="1" parent="1" source="c13vCLqnfg1jj1d8WCXx-457" target="c13vCLqnfg1jj1d8WCXx-456">
          <mxGeometry width="50" height="50" relative="1" as="geometry">
            <mxPoint x="1270" y="70" as="sourcePoint" />
            <mxPoint x="1320" y="20" as="targetPoint" />
          </mxGeometry>
        </mxCell>
        <mxCell id="c13vCLqnfg1jj1d8WCXx-473" value="Matches" style="rounded=1;whiteSpace=wrap;html=1;" vertex="1" parent="1">
          <mxGeometry x="1451.25" y="-600" width="90" height="40" as="geometry" />
        </mxCell>
        <mxCell id="c13vCLqnfg1jj1d8WCXx-474" value="Match Id" style="ellipse;whiteSpace=wrap;html=1;" vertex="1" parent="1">
          <mxGeometry x="1371.25" y="-540" width="70" height="40" as="geometry" />
        </mxCell>
        <mxCell id="c13vCLqnfg1jj1d8WCXx-475" value="Country Name" style="ellipse;whiteSpace=wrap;html=1;" vertex="1" parent="1">
          <mxGeometry x="1541.25" y="-540" width="70" height="40" as="geometry" />
        </mxCell>
        <mxCell id="c13vCLqnfg1jj1d8WCXx-476" value="Season" style="ellipse;whiteSpace=wrap;html=1;" vertex="1" parent="1">
          <mxGeometry x="1396.25" y="-480" width="85" height="40" as="geometry" />
        </mxCell>
        <mxCell id="c13vCLqnfg1jj1d8WCXx-477" value="Kick Off" style="ellipse;whiteSpace=wrap;html=1;" vertex="1" parent="1">
          <mxGeometry x="1526.25" y="-480" width="65" height="40" as="geometry" />
        </mxCell>
        <mxCell id="c13vCLqnfg1jj1d8WCXx-478" value="Match Date" style="ellipse;whiteSpace=wrap;html=1;" vertex="1" parent="1">
          <mxGeometry x="1376.25" y="-420" width="70" height="40" as="geometry" />
        </mxCell>
        <mxCell id="c13vCLqnfg1jj1d8WCXx-479" value="Home Team" style="ellipse;whiteSpace=wrap;html=1;" vertex="1" parent="1">
          <mxGeometry x="1536.25" y="-420" width="70" height="40" as="geometry" />
        </mxCell>
        <mxCell id="c13vCLqnfg1jj1d8WCXx-480" value="Stadium" style="ellipse;whiteSpace=wrap;html=1;" vertex="1" parent="1">
          <mxGeometry x="1371.25" y="-350" width="70" height="40" as="geometry" />
        </mxCell>
        <mxCell id="c13vCLqnfg1jj1d8WCXx-481" value="Home Team Gender" style="ellipse;whiteSpace=wrap;html=1;" vertex="1" parent="1">
          <mxGeometry x="1530" y="-360" width="76.25" height="50" as="geometry" />
        </mxCell>
        <mxCell id="c13vCLqnfg1jj1d8WCXx-482" value="Stadium Country" style="ellipse;whiteSpace=wrap;html=1;" vertex="1" parent="1">
          <mxGeometry x="1371.25" y="-280" width="70" height="40" as="geometry" />
        </mxCell>
        <mxCell id="c13vCLqnfg1jj1d8WCXx-483" value="Home Team Manager" style="ellipse;whiteSpace=wrap;html=1;" vertex="1" parent="1">
          <mxGeometry x="1520" y="-290" width="86.25" height="50" as="geometry" />
        </mxCell>
        <mxCell id="c13vCLqnfg1jj1d8WCXx-484" value="Referee Name" style="ellipse;whiteSpace=wrap;html=1;" vertex="1" parent="1">
          <mxGeometry x="1371.25" y="-200" width="70" height="40" as="geometry" />
        </mxCell>
        <mxCell id="c13vCLqnfg1jj1d8WCXx-485" value="Home Team Group" style="ellipse;whiteSpace=wrap;html=1;" vertex="1" parent="1">
          <mxGeometry x="1520" y="-210" width="86.25" height="50" as="geometry" />
        </mxCell>
        <mxCell id="c13vCLqnfg1jj1d8WCXx-486" value="Referee Country" style="ellipse;whiteSpace=wrap;html=1;" vertex="1" parent="1">
          <mxGeometry x="1366.25" y="-130" width="70" height="40" as="geometry" />
        </mxCell>
        <mxCell id="c13vCLqnfg1jj1d8WCXx-487" value="Home Team Country" style="ellipse;whiteSpace=wrap;html=1;" vertex="1" parent="1">
          <mxGeometry x="1530" y="-140" width="83.75" height="50" as="geometry" />
        </mxCell>
        <mxCell id="c13vCLqnfg1jj1d8WCXx-488" value="Away Team" style="ellipse;whiteSpace=wrap;html=1;" vertex="1" parent="1">
          <mxGeometry x="1551.25" y="-80" width="75" height="40" as="geometry" />
        </mxCell>
        <mxCell id="c13vCLqnfg1jj1d8WCXx-489" value="Away Team Gender" style="ellipse;whiteSpace=wrap;html=1;" vertex="1" parent="1">
          <mxGeometry x="1540" y="-30" width="86.25" height="50" as="geometry" />
        </mxCell>
        <mxCell id="c13vCLqnfg1jj1d8WCXx-490" value="Away Team group" style="ellipse;whiteSpace=wrap;html=1;" vertex="1" parent="1">
          <mxGeometry x="1551.25" y="30" width="75" height="40" as="geometry" />
        </mxCell>
        <mxCell id="c13vCLqnfg1jj1d8WCXx-491" value="Home Score" style="ellipse;whiteSpace=wrap;html=1;" vertex="1" parent="1">
          <mxGeometry x="1551.25" y="80" width="75" height="40" as="geometry" />
        </mxCell>
        <mxCell id="c13vCLqnfg1jj1d8WCXx-492" value="Away Score" style="ellipse;whiteSpace=wrap;html=1;" vertex="1" parent="1">
          <mxGeometry x="1551.25" y="130" width="75" height="40" as="geometry" />
        </mxCell>
        <mxCell id="c13vCLqnfg1jj1d8WCXx-493" value="Match Status" style="ellipse;whiteSpace=wrap;html=1;" vertex="1" parent="1">
          <mxGeometry x="1551.25" y="180" width="75" height="40" as="geometry" />
        </mxCell>
        <mxCell id="c13vCLqnfg1jj1d8WCXx-494" value="" style="endArrow=none;html=1;rounded=0;entryX=1;entryY=0.5;entryDx=0;entryDy=0;exitX=0;exitY=0.5;exitDx=0;exitDy=0;" edge="1" parent="1" source="c13vCLqnfg1jj1d8WCXx-475" target="c13vCLqnfg1jj1d8WCXx-474">
          <mxGeometry width="50" height="50" relative="1" as="geometry">
            <mxPoint x="1496.25" y="-520" as="sourcePoint" />
            <mxPoint x="1616.25" y="-360" as="targetPoint" />
          </mxGeometry>
        </mxCell>
        <mxCell id="c13vCLqnfg1jj1d8WCXx-495" value="" style="endArrow=none;html=1;rounded=0;entryX=0;entryY=0.5;entryDx=0;entryDy=0;exitX=1;exitY=0.5;exitDx=0;exitDy=0;" edge="1" parent="1" source="c13vCLqnfg1jj1d8WCXx-476" target="c13vCLqnfg1jj1d8WCXx-477">
          <mxGeometry width="50" height="50" relative="1" as="geometry">
            <mxPoint x="1566.25" y="-310" as="sourcePoint" />
            <mxPoint x="1616.25" y="-360" as="targetPoint" />
          </mxGeometry>
        </mxCell>
        <mxCell id="c13vCLqnfg1jj1d8WCXx-496" value="" style="endArrow=none;html=1;rounded=0;entryX=0;entryY=0.5;entryDx=0;entryDy=0;exitX=1;exitY=0.5;exitDx=0;exitDy=0;" edge="1" parent="1" source="c13vCLqnfg1jj1d8WCXx-478" target="c13vCLqnfg1jj1d8WCXx-479">
          <mxGeometry width="50" height="50" relative="1" as="geometry">
            <mxPoint x="1566.25" y="-310" as="sourcePoint" />
            <mxPoint x="1616.25" y="-360" as="targetPoint" />
          </mxGeometry>
        </mxCell>
        <mxCell id="c13vCLqnfg1jj1d8WCXx-497" value="" style="endArrow=none;html=1;rounded=0;entryX=1;entryY=0.5;entryDx=0;entryDy=0;exitX=0;exitY=0.5;exitDx=0;exitDy=0;" edge="1" parent="1" source="c13vCLqnfg1jj1d8WCXx-481" target="c13vCLqnfg1jj1d8WCXx-480">
          <mxGeometry width="50" height="50" relative="1" as="geometry">
            <mxPoint x="1566.25" y="-310" as="sourcePoint" />
            <mxPoint x="1616.25" y="-360" as="targetPoint" />
          </mxGeometry>
        </mxCell>
        <mxCell id="c13vCLqnfg1jj1d8WCXx-498" value="" style="endArrow=none;html=1;rounded=0;entryX=1;entryY=0.5;entryDx=0;entryDy=0;" edge="1" parent="1" source="c13vCLqnfg1jj1d8WCXx-483" target="c13vCLqnfg1jj1d8WCXx-482">
          <mxGeometry width="50" height="50" relative="1" as="geometry">
            <mxPoint x="1566.25" y="-310" as="sourcePoint" />
            <mxPoint x="1616.25" y="-360" as="targetPoint" />
          </mxGeometry>
        </mxCell>
        <mxCell id="c13vCLqnfg1jj1d8WCXx-499" value="" style="endArrow=none;html=1;rounded=0;entryX=1;entryY=0.5;entryDx=0;entryDy=0;exitX=0;exitY=0.5;exitDx=0;exitDy=0;" edge="1" parent="1" source="c13vCLqnfg1jj1d8WCXx-485" target="c13vCLqnfg1jj1d8WCXx-484">
          <mxGeometry width="50" height="50" relative="1" as="geometry">
            <mxPoint x="1556.25" y="-180" as="sourcePoint" />
            <mxPoint x="1616.25" y="-160" as="targetPoint" />
          </mxGeometry>
        </mxCell>
        <mxCell id="c13vCLqnfg1jj1d8WCXx-500" value="" style="endArrow=none;html=1;rounded=0;exitX=1;exitY=0.5;exitDx=0;exitDy=0;entryX=0;entryY=0.5;entryDx=0;entryDy=0;" edge="1" parent="1" source="c13vCLqnfg1jj1d8WCXx-486" target="c13vCLqnfg1jj1d8WCXx-487">
          <mxGeometry width="50" height="50" relative="1" as="geometry">
            <mxPoint x="1566.25" y="-110" as="sourcePoint" />
            <mxPoint x="1616.25" y="-160" as="targetPoint" />
          </mxGeometry>
        </mxCell>
        <mxCell id="c13vCLqnfg1jj1d8WCXx-501" value="" style="endArrow=none;html=1;rounded=0;exitX=0;exitY=0.5;exitDx=0;exitDy=0;entryX=1;entryY=0.5;entryDx=0;entryDy=0;" edge="1" parent="1" source="c13vCLqnfg1jj1d8WCXx-488" target="c13vCLqnfg1jj1d8WCXx-508">
          <mxGeometry width="50" height="50" relative="1" as="geometry">
            <mxPoint x="1566.25" y="-110" as="sourcePoint" />
            <mxPoint x="1490" y="-60" as="targetPoint" />
          </mxGeometry>
        </mxCell>
        <mxCell id="c13vCLqnfg1jj1d8WCXx-502" value="" style="endArrow=none;html=1;rounded=0;entryX=0;entryY=0.3;entryDx=0;entryDy=0;entryPerimeter=0;exitX=1;exitY=0.5;exitDx=0;exitDy=0;" edge="1" parent="1" source="c13vCLqnfg1jj1d8WCXx-509" target="c13vCLqnfg1jj1d8WCXx-489">
          <mxGeometry width="50" height="50" relative="1" as="geometry">
            <mxPoint x="1490" y="-10" as="sourcePoint" />
            <mxPoint x="1616.25" y="-160" as="targetPoint" />
          </mxGeometry>
        </mxCell>
        <mxCell id="c13vCLqnfg1jj1d8WCXx-503" value="" style="endArrow=none;html=1;rounded=0;entryX=0;entryY=0.5;entryDx=0;entryDy=0;exitX=1;exitY=0.5;exitDx=0;exitDy=0;" edge="1" parent="1" target="c13vCLqnfg1jj1d8WCXx-490">
          <mxGeometry width="50" height="50" relative="1" as="geometry">
            <mxPoint x="1421.25" y="50" as="sourcePoint" />
            <mxPoint x="1616.25" y="-160" as="targetPoint" />
          </mxGeometry>
        </mxCell>
        <mxCell id="c13vCLqnfg1jj1d8WCXx-504" value="" style="endArrow=none;html=1;rounded=0;entryX=0;entryY=0.5;entryDx=0;entryDy=0;exitX=1;exitY=0.5;exitDx=0;exitDy=0;" edge="1" parent="1" target="c13vCLqnfg1jj1d8WCXx-491">
          <mxGeometry width="50" height="50" relative="1" as="geometry">
            <mxPoint x="1421.25" y="100" as="sourcePoint" />
            <mxPoint x="1616.25" y="40" as="targetPoint" />
          </mxGeometry>
        </mxCell>
        <mxCell id="c13vCLqnfg1jj1d8WCXx-505" value="" style="endArrow=none;html=1;rounded=0;entryX=0;entryY=0.5;entryDx=0;entryDy=0;exitX=1;exitY=0.5;exitDx=0;exitDy=0;" edge="1" parent="1" target="c13vCLqnfg1jj1d8WCXx-492">
          <mxGeometry width="50" height="50" relative="1" as="geometry">
            <mxPoint x="1426.25" y="150" as="sourcePoint" />
            <mxPoint x="1616.25" y="40" as="targetPoint" />
          </mxGeometry>
        </mxCell>
        <mxCell id="c13vCLqnfg1jj1d8WCXx-506" value="" style="endArrow=none;html=1;rounded=0;entryX=0;entryY=0.5;entryDx=0;entryDy=0;" edge="1" parent="1" target="c13vCLqnfg1jj1d8WCXx-493">
          <mxGeometry width="50" height="50" relative="1" as="geometry">
            <mxPoint x="1490" y="200" as="sourcePoint" />
            <mxPoint x="1616.25" y="40" as="targetPoint" />
          </mxGeometry>
        </mxCell>
        <mxCell id="c13vCLqnfg1jj1d8WCXx-507" value="" style="endArrow=none;html=1;rounded=0;" edge="1" parent="1">
          <mxGeometry width="50" height="50" relative="1" as="geometry">
            <mxPoint x="1488" y="200" as="sourcePoint" />
            <mxPoint x="1497.5" y="-560" as="targetPoint" />
          </mxGeometry>
        </mxCell>
        <mxCell id="c13vCLqnfg1jj1d8WCXx-508" value="Match Week" style="ellipse;whiteSpace=wrap;html=1;" vertex="1" parent="1">
          <mxGeometry x="1371.25" y="-75" width="75" height="40" as="geometry" />
        </mxCell>
        <mxCell id="c13vCLqnfg1jj1d8WCXx-509" value="Competition Statge" style="ellipse;whiteSpace=wrap;html=1;" vertex="1" parent="1">
          <mxGeometry x="1366.25" y="-25" width="75" height="40" as="geometry" />
        </mxCell>
        <mxCell id="c13vCLqnfg1jj1d8WCXx-510" value="Last updated" style="ellipse;whiteSpace=wrap;html=1;" vertex="1" parent="1">
          <mxGeometry x="1366.25" y="35" width="75" height="40" as="geometry" />
        </mxCell>
        <mxCell id="c13vCLqnfg1jj1d8WCXx-511" value="Metadata" style="ellipse;whiteSpace=wrap;html=1;" vertex="1" parent="1">
          <mxGeometry x="1366.25" y="85" width="75" height="40" as="geometry" />
        </mxCell>
        <mxCell id="c13vCLqnfg1jj1d8WCXx-512" value="Data Version" style="ellipse;whiteSpace=wrap;html=1;" vertex="1" parent="1">
          <mxGeometry x="1371.25" y="135" width="75" height="40" as="geometry" />
        </mxCell>
        <mxCell id="c13vCLqnfg1jj1d8WCXx-514" value="" style="endArrow=none;html=1;rounded=0;entryX=1;entryY=0.5;entryDx=0;entryDy=0;" edge="1" parent="1" target="c13vCLqnfg1jj1d8WCXx-203">
          <mxGeometry width="50" height="50" relative="1" as="geometry">
            <mxPoint x="1010" y="-320" as="sourcePoint" />
            <mxPoint x="820" y="-210" as="targetPoint" />
          </mxGeometry>
        </mxCell>
        <mxCell id="c13vCLqnfg1jj1d8WCXx-515" value="" style="endArrow=none;html=1;rounded=0;" edge="1" parent="1">
          <mxGeometry width="50" height="50" relative="1" as="geometry">
            <mxPoint x="1010" y="-630" as="sourcePoint" />
            <mxPoint x="1010" y="-320" as="targetPoint" />
          </mxGeometry>
        </mxCell>
        <mxCell id="c13vCLqnfg1jj1d8WCXx-516" value="" style="endArrow=none;html=1;rounded=0;" edge="1" parent="1">
          <mxGeometry width="50" height="50" relative="1" as="geometry">
            <mxPoint x="1500" y="-630" as="sourcePoint" />
            <mxPoint x="1010" y="-630" as="targetPoint" />
          </mxGeometry>
        </mxCell>
        <mxCell id="c13vCLqnfg1jj1d8WCXx-517" value="" style="endArrow=none;html=1;rounded=0;exitX=0.5;exitY=0;exitDx=0;exitDy=0;" edge="1" parent="1" source="c13vCLqnfg1jj1d8WCXx-473">
          <mxGeometry width="50" height="50" relative="1" as="geometry">
            <mxPoint x="770" y="-160" as="sourcePoint" />
            <mxPoint x="1500" y="-630" as="targetPoint" />
          </mxGeometry>
        </mxCell>
        <mxCell id="c13vCLqnfg1jj1d8WCXx-518" value="" style="endArrow=none;html=1;rounded=0;exitX=0.5;exitY=0;exitDx=0;exitDy=0;" edge="1" parent="1" source="c13vCLqnfg1jj1d8WCXx-429">
          <mxGeometry width="50" height="50" relative="1" as="geometry">
            <mxPoint x="770" y="-160" as="sourcePoint" />
            <mxPoint x="1210" y="-630" as="targetPoint" />
          </mxGeometry>
        </mxCell>
      </root>
    </mxGraphModel>
  </diagram>
  <diagram id="dvXQ3G-yD35wAsFMLKmQ" name="Page-2">
    <mxGraphModel dx="1674" dy="746" grid="1" gridSize="10" guides="1" tooltips="1" connect="1" arrows="1" fold="1" page="1" pageScale="1" pageWidth="850" pageHeight="1100" math="0" shadow="0">
      <root>
        <mxCell id="0" />
        <mxCell id="1" parent="0" />
      </root>
    </mxGraphModel>
  </diagram>
</mxfile>
